# xmcd CD database file
#
# Track frame offsets:
#	150
#	2320
#	13275
#	30542
#	44046
#	48508
#	69652
#	92217
#	112605
#	122551
#	126178
#	146012
#	153391
#	175729
#	200167
#
# Disc length: 2901 seconds
#
# Revision: 0
# Processed by: cddbd v1.5.2PL0 Copyright (c) Steve Scherf et al.
# Submitted via: CDex 1.70beta2
#
DISCID=cb0b530f
DTITLE=Nelson Veras - Nelson Veras
DYEAR=2009
DGENRE=Jazz
TTITLE0=Rascunho
TTITLE1=Amparo
TTITLE2=Lilia
TTITLE3=How Deep Is The Ocean
TTITLE4=Hiato
TTITLE5=Prism
TTITLE6=Every Tear From Every Eye
TTITLE7=Saidas E Bandeiras
TTITLE8=Francisca
TTITLE9=Intro Francisca
TTITLE10=Francisca
TTITLE11=Enleio
TTITLE12=I Lucevan Le Stelle
TTITLE13=Leila
TTITLE14=Ana Maria
EXTD=YEAR: 2009
EXTT0=
EXTT1=
EXTT2=
EXTT3=
EXTT4=
EXTT5=
EXTT6=
EXTT7=
EXTT8=
EXTT9=
EXTT10=
EXTT11=
EXTT12=
EXTT13=
EXTT14=
PLAYORDER=
